<?xml version="1.0" encoding="UTF-8"?>
<svg id="Camada_1" data-name="Camada 1" xmlns="http://www.w3.org/2000/svg" viewBox="0 0 600 600">
  <defs>
    <style>
      .cls-1 {
        fill: #da1923;
      }
    </style>
  </defs>
  <g>
    <path class="cls-1" d="M126.08,409.3l-6.55-10.5-39.07,24.36,6.53,10.5c3.59,5.74,8.65,7.64,15.9,3.1l18.98-11.83c7.25-4.52,7.79-9.88,4.21-15.64ZM116.83,416.84l-18.98,11.83c-2.18,1.37-3.22,1.07-3.95-.1l-1.14-1.84,24.56-15.31,1.15,1.84c.73,1.17.52,2.23-1.64,3.58Z"/>
    <path class="cls-1" d="M136.48,424.53l-38.62,25.53,5.69,6.91,7.17-5.04,3.46,4.21-6.34,6.06,5.56,6.76,32.57-32.9-9.49-11.54ZM119.46,450.96l-2.63-3.2,18.15-12.71.26.31-15.78,15.6Z"/>
    <path class="cls-1" d="M167.22,455.41c-5.15-4.39-10.53-4.66-16.09,1.84l-15.8,18.51c-5.56,6.5-4.44,11.77.72,16.17,5.41,4.62,10.79,4.89,16.35-1.61l5.2-6.11-7-5.98-5.04,5.9c-1.66,1.97-2.73,2-3.79,1.11-1.04-.91-1.17-1.97.49-3.92l15.46-18.11c1.67-1.95,2.75-1.98,3.79-1.09,1.06.89,1.19,1.95-.49,3.9l-4.86,5.7,7.01,5.98,5.04-5.9c5.54-6.5,4.44-11.78-.97-16.4Z"/>
    <path class="cls-1" d="M189.94,473.47l-19.05,29.27c-1.41,2.15-2.47,2.32-3.62,1.56-1.15-.75-1.41-1.79-.02-3.93l19.05-29.27-7.61-4.96-19.19,29.5c-4.66,7.17-2.88,12.25,2.96,16.06,5.85,3.8,11.23,3.38,15.9-3.79l19.19-29.5-7.61-4.94Z"/>
    <path class="cls-1" d="M209.73,484.55l-8.29-4.03-20.12,41.43,18.46,8.96,3.79-7.8-10.17-4.94,16.33-33.61Z"/>
    <path class="cls-1" d="M219.06,489.12l-3.02,8.14,5.12,1.9-13,35.01,8.63,3.2,13-35.01,5.12,1.9,3.02-8.14-18.87-7Z"/>
    <path class="cls-1" d="M254.35,500.33l-8.08,33.97c-.6,2.5-1.53,3.02-2.88,2.7-1.33-.33-1.93-1.2-1.35-3.71l8.09-33.97-8.84-2.1-8.14,34.23c-1.98,8.31,1.41,12.5,8.21,14.12,6.78,1.61,11.7-.6,13.67-8.92l8.16-34.23-8.84-2.1Z"/>
    <path class="cls-1" d="M279.18,504.36l-11.72-1.22-4.73,45.8,9.48.98,2-19.29,1.84.2c1.38.13,2.08.94,1.82,3.49l-1.66,16.03,9.49.98,1.72-16.68c.34-3.33-.96-6.18-4.53-7.35,3.82-.47,5.36-3.28,5.96-9.04l.31-2.94c.73-7.2-3.25-10.26-9.98-10.95ZM279.46,516.29l-.37,3.59c-.26,2.55-1.12,3.2-2.49,3.06l-1.58-.16,1.06-10.14,1.56.16c1.38.15,2.1.94,1.82,3.49Z"/>
    <path class="cls-1" d="M313.1,505.13l-14.92.41-3.58,46.14,8.96-.24.42-8.76,5.44-.15.89,8.73,8.74-.23-5.96-45.9ZM304.44,535.29l1.12-22.14h.39l2.63,22.02-4.14.11Z"/>
    <path class="cls-1" d="M348.89,499.7l-14.61,3.01,4.53,46.06,8.78-1.8-1.12-8.7,5.35-1.11,2.41,8.45,8.57-1.77-13.9-44.14ZM345.64,530.92l-2.78-21.99.39-.08,6.44,21.24-4.05.83Z"/>
    <path class="cls-1" d="M389.02,523.88l-7.9-23.01c-2.78-8.09-7.9-9.82-14.61-7.51-6.71,2.32-9.69,6.81-6.91,14.9l7.9,23.01c2.78,8.08,7.9,9.8,14.61,7.49,6.71-2.31,9.69-6.81,6.91-14.89ZM379.25,530.43c-1.32.46-2.29.03-3.12-2.41l-7.74-22.51c-.85-2.42-.33-3.36.97-3.82,1.32-.44,2.29-.02,3.12,2.41l7.74,22.53c.85,2.42.33,3.36-.98,3.8Z"/>
    <path class="cls-1" d="M411.97,501.94l8.17-4.53-4.14-7.48-8.18,4.53-3.88-7.02,8.45-4.68-4.29-7.77-16.81,9.3,22.3,40.27,8.35-4.62-9.98-18.01Z"/>
    <path class="cls-1" d="M450.45,488.11l-14.3-19.68c-5.02-6.92-10.42-7.07-16.16-2.89-5.75,4.16-7.28,9.35-2.26,16.25l14.3,19.7c5.02,6.91,10.4,7.07,16.16,2.89,5.75-4.18,7.28-9.35,2.26-16.27ZM443.01,497.24c-1.11.81-2.18.7-3.67-1.38l-13.99-19.28c-1.51-2.06-1.3-3.12-.18-3.93,1.12-.81,2.18-.68,3.69,1.4l13.99,19.26c1.5,2.08,1.28,3.12.16,3.93Z"/>
    <path class="cls-1" d="M463.45,469.32l11.08,11.7,6.92-6.57-11.52-12.17c-2.31-2.44-5.31-3.32-8.53-1.35,2.15-3.2,1.01-6.21-2.96-10.42l-2.05-2.15c-4.97-5.25-9.88-4.23-14.81.44l-8.55,8.09,31.66,33.43,6.92-6.55-13.34-14.09,1.33-1.27c1.01-.96,2.08-.98,3.84.89ZM454.01,462.87l-1.15,1.09-7.01-7.41,1.15-1.07c.99-.96,2.06-.98,3.84.89l2.49,2.62c1.76,1.87,1.69,2.94.68,3.88Z"/>
    <path class="cls-1" d="M502.67,449.28l-35.8-28.96-5.57,6.89,19.18,14.77-21.88-11.44-5.97,7.36,35.8,28.98,5.67-7-19.6-15.12,22.49,11.52,5.67-7Z"/>
    <path class="cls-1" d="M511.24,415.83l-20.75-12.71c-7.28-4.47-12.32-2.55-16.03,3.51-3.72,6.05-3.15,11.41,4.14,15.88l20.74,12.73c7.3,4.47,12.34,2.54,16.04-3.51,3.72-6.06,3.14-11.43-4.14-15.9ZM507.87,427.11c-.73,1.19-1.76,1.48-3.93.13l-20.3-12.43c-2.19-1.35-2.39-2.39-1.67-3.58.72-1.17,1.76-1.46,3.93-.13l20.3,12.45c2.19,1.33,2.39,2.39,1.67,3.56Z"/>
  </g>
  <g>
    <path class="cls-1" d="M216.07,100.64l-2.55-5.2c-2.28-4.68-4.5-6.37-8.16-5.17,3.02-2.5,3.06-5.3.94-9.61l-1.2-2.49c-3.19-6.5-8.47-7.57-14.55-4.6l-11,5.36,20.2,41.36,11-5.36c6.08-2.97,8.48-7.8,5.31-14.3ZM197.8,89.93l-1.82.89-4.11-8.39,1.84-.89c1.24-.6,2.28-.31,3.4,2l1.22,2.49c1.12,2.31.73,3.3-.52,3.9ZM206.42,107.55l-1.84.89-5.43-11.12,1.84-.89c1.24-.6,2.26-.29,3.38,2l2.55,5.2c1.12,2.31.73,3.32-.5,3.92Z"/>
    <path class="cls-1" d="M248.61,89.58l-6.99-23.31c-2.47-8.19-7.51-10.11-14.3-8.06-6.81,2.03-9.96,6.42-7.49,14.61l6.99,23.31c2.47,8.19,7.51,10.11,14.3,8.06,6.81-2.05,9.96-6.42,7.49-14.61ZM238.58,95.75c-1.32.39-2.28-.08-3.02-2.54l-6.84-22.8c-.75-2.45-.2-3.38,1.14-3.77,1.32-.41,2.28.06,3.02,2.52l6.84,22.8c.73,2.45.2,3.38-1.14,3.79Z"/>
    <path class="cls-1" d="M284.1,94.89l-6.01-45.64-8.79,1.17,3.74,23.91-7.98-23.36-9.39,1.24,6.01,45.64,8.94-1.17-3.82-24.44,8.37,23.84,8.94-1.19Z"/>
    <path class="cls-1" d="M314.27,48.85l-14.92-.39-6.01,45.9,8.94.23.89-8.73,5.44.15.44,8.76,2.78.07c1.89-1.01,3.79-1.98,5.74-2.89l-3.3-43.09ZM304.01,78.51l2.29-22.04h.39l1.46,22.15-4.14-.11Z"/>
    <path class="cls-1" d="M331.69,50.34l-1.41,8.57,5.38.89-4.44,26.59c3.22-1.09,6.5-2.08,9.83-2.96l3.69-22.12,5.38.89,1.43-8.57-19.86-3.3Z"/>
    <path class="cls-1" d="M365.53,56.99l-2.58,8.27,5.22,1.64-3.87,12.37c3.28-.34,6.57-.57,9.85-.68l2.8-8.94,5.22,1.63,2.58-8.29-19.21-6Z"/>
    <path class="cls-1" d="M410.27,72.87c-6.39-3.1-11.67-2.02-15.41,5.67l-.34.7c3.48.34,6.92.81,10.32,1.41.5-.21,1.02-.13,1.58.15.15.06.28.15.39.23,3.3.63,6.53,1.4,9.72,2.28.15.05.31.08.46.13.7-4.84-1.85-8.19-6.71-10.56Z"/>
  </g>
  <g>
    <path class="cls-1" d="M65.31,301.91c1.45-2.44,3.28-5.38,3.28-8.66,0-4.79-2.39-6.63-6.11-6.63-3.98,0-6.27,1.84-6.27,6.63v3.61h5.05v-3.46c0-1.43.44-1.84,1.22-1.84.7,0,1.14.41,1.14,1.84,0,1.56-.96,3.58-1.66,4.83l-5.96,10.47-.05,4.27h12.38v-5.01h-6.6l3.58-6.05Z"/>
    <path class="cls-1" d="M76.82,286.62c-3.62,0-6.01,1.84-6.01,6.63v13.64c0,4.79,2.39,6.63,6.01,6.63s6.08-1.84,6.08-6.63v-13.64c0-4.79-2.41-6.63-6.08-6.63ZM77.92,306.74c0,1.45-.46,1.85-1.11,1.85-.6,0-1.04-.41-1.04-1.85v-13.34c0-1.43.44-1.84,1.04-1.84.65,0,1.11.41,1.11,1.84v13.34Z"/>
  </g>
  <g>
    <path class="cls-1" d="M520.04,287.26c-1.06,1.33-2.36,2.44-4.16,2.44v5.59c.81,0,1.54-.1,2.24-.44v18.2h5.05v-25.79h-3.14Z"/>
    <path class="cls-1" d="M533.94,297c-1.28,0-2.58.59-3.2,1.77v-5.23c0-1.48.44-1.89,1.14-1.89.78,0,1.22.41,1.22,1.51v1.95h4.86v-1.77c0-4.79-2.1-6.63-6.08-6.63-3.72,0-6.11,1.84-6.11,6.78v13.31c0,4.79,2.28,6.63,6.26,6.63,3.72,0,6.13-1.84,6.13-6.92v-3.8c0-4.83-2.36-5.7-4.21-5.7ZM532.02,308.49c-.76,0-1.22-.41-1.22-1.84v-3.36c0-1.76.55-2.02,1.22-2.02.85,0,1.15.67,1.15,3.84,0,2.97-.45,3.38-1.15,3.38Z"/>
  </g>
  <g>
    <path class="cls-1" d="M300,17.28C144.12,17.28,17.28,144.12,17.28,300s126.84,282.72,282.72,282.72,282.72-126.82,282.72-282.72S455.88,17.28,300,17.28ZM300,569.71c-148.71,0-269.71-121-269.71-269.71S151.29,30.29,300,30.29s269.71,121,269.71,269.71-121,269.71-269.71,269.71Z"/>
    <path class="cls-1" d="M202.56,135.29c-1.58.91-3.12,1.87-4.66,2.84,6.57.75,13.07,2.03,19.42,3.8,1.02-.57,2.05-1.09,3.09-1.59,17.33-8.68,36.24-14.61,56.19-17.24,2.91-2.96,5.83-5.87,8.81-8.76,2.05-1.92,4.16-3.79,6.32-5.59-32.46,1.38-62.83,10.89-89.16,26.54ZM457.44,191.25c-2.19,3.41-4.68,6.65-7.41,9.67-.34.33-.68.67-1.04,1.02,18.61,28.15,29.43,61.86,29.43,98.05,0,56.14-26.07,106.31-66.73,139.03-4.42,9.3-10.84,19.67-20.1,29.01,59.44-32.51,99.84-95.65,99.84-168.04,0-40.36-12.56-77.83-33.98-108.75ZM121.58,300c0-6.44.34-12.79,1.02-19.05-4.24-2.65-8.24-5.67-11.96-9.04-1.37,9.17-2.06,18.54-2.06,28.08,0,103.07,81.9,187.38,184.03,191.26-16.33-4.24-32.51-11.62-46.58-21.19-72.08-22.92-124.45-90.5-124.45-170.07Z"/>
    <g>
      <path class="cls-1" d="M363.39,392.06c9.29-10.77.97-29.03-13.19-27.85-.64-.84-1.26-1.68-1.82-2.54-5.92-8.81-6.69-18.88-7.17-29.38-7.66,10.04-5.41,25.75,3.91,33.39-2.13,1.08-3.89,2.64-5.17,4.47,5.75-2.2,12.23-1.77,15.72,3.09,2.7,3.74,3.19,9.01.09,12.55-3.28,3.89-8.02,5.54-13.26,4.44-6.07-1.22-11.4-5.04-16.15-9.41.74,3.47,2.38,6.76,4.66,9.69,8.05,10.5,23.36,12.36,32.38,1.56Z"/>
      <path class="cls-1" d="M372.94,326.28c-4.78.41-8.28,10.34-7.83,18.24.43,7.67,4.79,16.95,9.44,16.91,4.83-.04,9.72-10.13,9.01-18.9-.64-7.87-5.95-16.66-10.63-16.26Z"/>
      <path class="cls-1" d="M287.4,334.97c-.94-.18-6.89-1.33-11.24,1.7-2.98,2.08-5.46,6.31-4.27,8.17,1.26,1.97,5.77-.06,12.06,0,4.73.05,10.76,1.28,17.76,5.7.29-1.68,2.12-13.03-4.76-19.2-7.27-6.53-20.12-3.54-20.17-3.03-.04.38,3.33.46,8.2,2.97,3.18,1.64,6.23,3.92,5.98,4.41-.16.32-1.61-.36-3.56-.73Z"/>
      <path class="cls-1" d="M261.57,318.94c2.66-1.39,6.36-3.36,11.21-4.97,0,0,6.97-2.32,15.04-2.82,13.92-.87,25.86,5.35,32.46,9.63.16-2.91-.02-8.17-3.26-12.87-5.56-8.08-16.11-8.67-22.72-9.04-3.46-.19-15.85-.71-26.73,7.36-6.91,5.13-12.14,12.94-11.06,14.18.3.34,1.24.52,5.05-1.46Z"/>
      <g>
        <path class="cls-1" d="M202.56,135.29c-1.58.91-3.12,1.87-4.66,2.84,6.57.75,13.07,2.03,19.42,3.8,1.02-.57,2.05-1.09,3.09-1.59-5.82-2.13-11.78-3.82-17.85-5.05Z"/>
        <path class="cls-1" d="M469.52,137.57c-3.85-28.62-25.87-46.66-52.53-54.14-.15-.05-.31-.08-.46-.13-3.19-.88-6.42-1.64-9.72-2.28-.65-.13-1.3-.24-1.97-.37-3.4-.6-6.84-1.07-10.32-1.41-6.71-.68-13.54-.91-20.38-.65-3.28.11-6.57.34-9.85.68-7.87.78-15.67,2.18-23.24,4.16-3.33.88-6.61,1.87-9.83,2.96-4.7,1.61-9.26,3.45-13.65,5.54-1.95.91-3.85,1.89-5.74,2.89-.52.29-1.02.57-1.54.86-6.58,3.77-12.76,8.21-18.56,13.07-2.16,1.8-4.27,3.67-6.32,5.59-2.97,2.89-5.9,5.8-8.81,8.76-9.91,10.08-19.44,20.48-28.64,31.17-8.55-5.67-17.83-10.39-27.55-13.93-1.04.5-2.06,1.02-3.09,1.59,10.58,2.91,20.8,7.17,30.49,12.48-14.53,16.92-28.2,34.55-41.17,52.74,19.52-23.26,40.36-45.28,61.52-66.98,6.09-6.16,12.29-12.34,18.79-18.14,5.41-4.81,11.04-9.36,16.97-13.42,3.27-2.24,6.61-4.32,10.09-6.22,5.07-2.67,10.32-4.96,15.7-6.91,3.23-1.17,6.53-2.21,9.85-3.12,7.18-1.98,14.53-3.38,21.94-4.23,3.28-.37,6.6-.63,9.9-.78,6.35-.31,12.73-.2,19.03.29,3.17.24,6.32.59,9.44,1.02.1.02.18.03.28.05,1.5.2,2.99.44,4.49.72,3.09.54,6.18,1.24,9.22,2.1,23.37,6.45,44.16,21.45,48.08,47.23,2.52,17.78-.83,33.84-8.31,47.17-2.24,4.03-4.88,7.8-7.83,11.3-8.42,9.96-19.52,17.67-32.15,22.46-22.17-23.42-70.81-19.5-71.85-15.51-.55,2.16,13,5.01,21.58,15.52-26.48-.99-52.69,2.15-78.01,9.31-36.81,10.45-71.58,29.78-100.52,55.86-.07.05-.13.1-.2.16l-.42.39c-.78.7-1.56,1.41-2.36,2.16-.68.02-1.37.05-2.06.06-19.31.83-39.79-5.14-55.88-16.43-4.14-2.89-7.98-6.14-11.46-9.72-10.4-10.74-17.33-24.44-18.22-40.39-1.2-24.33,13.21-47.86,31.06-63.74,17.91-14.94,41.85-21.01,64.91-19.88,2.57.13,5.14.34,7.69.63,1.54-.98,3.09-1.93,4.66-2.84-11.07-2.28-22.41-2.97-33.69-1.85-21.75,2.08-43.25,11.57-57.91,28.08-27.16,29.29-35.45,68.55-8.96,101.29,2.65,3.27,5.54,6.31,8.63,9.1,3.72,3.36,7.72,6.39,11.96,9.04,15.98,10.09,35.15,15.18,54.01,15.12-.07-.23-.15-.59-.11-.99.03.33.07.65.11.99.75,6.39,2.19,12.71,4.29,18.8,1.33,3.92,2.57,6.61,4.06,9.88-6.61-.88-13.33-.21-19.37,2.02-6.29,2.31-11.64,6.21-15.41,11.21-5.14,6.84-7.1,15.38-5.72,24.62,1.69,11.34,8.42,22.51,17.55,29.19,11.21,8.18,23.97,8.05,31.27,7.07,5.69,17.6,16.9,41.07,38.83,60.44,4.32,3.84,8.99,7.43,13.91,10.76,14.07,9.57,30.25,16.95,46.58,21.19,2.1.55,4.19,1.06,6.29,1.5,8.6,1.8,17,2.68,25.14,2.68,18.95,0,36.44-4.84,51.49-14.42,6.13-3.9,11.46-8.32,16.06-12.99,9.26-9.35,15.68-19.71,20.1-29.01,5.85-12.32,8.16-22.72,8.83-26.26,5.31-28.08-2.18-51.46-7.72-63.81,5.28-18.32,8.91-45.25-1.33-73.85,5.51-3.72,7.62-6.94,8.47-8.32,7.25-11.91,5.36-27.35.37-37.54-1.19-2.42-2.6-4.66-4.21-6.7,6.97-2.29,13.67-5.54,19.8-9.54,3.15-2.1,6.39-4.75,9.25-7.25,1.32-1.15,2.58-2.52,3.85-3.8.36-.36.7-.7,1.04-1.02,2.73-3.02,5.22-6.26,7.41-9.67,10.21-15.72,14.81-35.11,12.08-53.68ZM190.38,291.71s.11-.1.18-.16c1.51-1.35,3.04-2.7,4.58-4.01,27.04-23.24,58.95-40.5,92.61-50.06,26-7.36,52.98-10.32,80.21-8.76.23.16.44.32.67.5,1.64,4.86,2.26,10.19.88,10.86-1.11.52-2.76-2.32-7.23-5.43-5.59-3.87-12.24-5.79-13.1-4.49-.85,1.28,5.31,4.81,6,11.21.31,3.14-.78,5.98-2.08,8.21-.13.2-.23.39-.36.59-.02-.18-.05-.36-.08-.57-.49-3.02-2-9.35-7.41-13.81-5.18-4.32-12.32-5.57-13.16-4.13-.78,1.35,4.44,4,5.41,9.72.58,3.4-.54,6.55-1.9,8.99-.05.08-.1.18-.15.28-.02-.08-.03-.16-.07-.26-.59-2.37-2.34-7.95-7.61-11.8-5.07-3.74-11.82-4.29-12.42-2.99-.57,1.2,4.75,2.86,5.33,7.2.59,4.37-4.05,8.26-4.47,8.6-2.57,2.08-5.3,2.63-6.11,2.8-10.5,2.16-27.6,7.8-36.7,11.56-6.24,2.57-13.67,6.31-17.81,8.55-1.4.76-2.8,1.53-4.16,2.32-2.76,1.56-5.48,3.2-8.14,4.91-.67.42-1.32.85-2,1.28-.65.42-1.32.86-1.97,1.3-1.32.88-2.62,1.76-3.9,2.68-.65.44-1.28.91-1.92,1.37-.73.52-1.46,1.06-2.18,1.59-.02.02-.03.02-.03.02-.02.02-.03.03-.05.03-.36.26-.7.52-1.04.78-.07.05-.13.1-.2.15-.03.02-.06.06-.11.1-.36.26-.7.52-1.04.78-.36.26-.7.54-1.04.8-1.25.96-2.49,1.95-3.71,2.94-1.22.99-2.44,2-3.64,3.02-1.12.96-2.23,1.92-3.33,2.89-.08.07-.16.13-.23.21-1.15,1.02-2.31,2.08-3.43,3.14l-.07.07c-1.15,1.07-2.29,2.16-3.43,3.28-1.14,1.09-2.24,2.23-3.35,3.35-1.11,1.14-2.19,2.29-3.28,3.46-1.09,1.15-2.16,2.32-3.22,3.53-1.06,1.19-2.1,2.39-3.14,3.61-.75.89-1.5,1.8-2.24,2.7-.75-1.37-1.46-2.76-2.13-4.18-1.28-2.73-2.44-5.53-3.41-8.4-1.76-5.12-3.01-10.4-3.72-15.75,1.69-1.63,3.3-3.12,4.89-4.55ZM410.79,410.93c-.93,4.89-5.3,24.25-19.16,42.13-5.51,7.12-12.53,13.99-21.4,19.63-26.13,16.61-59.05,15.51-88.09,4.84-16.35-5.98-31.48-15.02-43.48-25.61-21.99-19.42-32.36-43.39-37.2-60.09l-1.32-4.55-4.6,1.12c-3.75.93-16.87,3.3-27.71-4.6-6.96-5.09-12.3-13.98-13.6-22.66-.68-4.58-.57-11.31,3.87-17.23,2.62-3.49,6.39-6.21,10.92-7.87,7.2-2.65,15.7-2.36,23.32.81l1.3.54.29.24c.31.21.62.42.96.67,1.74,1.24,3.92,3.02,5.95,5.54,9.59,11.82,6.68,27.45,12.27,28.73.6.15,2.16-.41,5.31-1.48,4.83-1.67,7.23-2.5,8.22-3.92,2.26-3.32-2.24-7.18-2.99-14.38-.93-8.63,4.79-10.37,6.06-20.51,1.41-11.18-4.83-14.69-2.91-21.19,2.76-9.41,18.9-12.71,33.38-14.77,17.62-2.49,42.27-5.7,72.99-6.65,27.81-.86,37.04.03,53.24-4.23,6.61-1.76,11.93-3.66,16.22-5.56,2.75,8.05,4.29,15.93,4.99,23.49-5.69-2.99-10.66-4.44-14.09-5.18-6.84-1.53-16.85-3.77-26.23,1.35-4.37,2.37-7.23,5.62-8.61,7.36-3.35,4.26-4.73,8.48-5.33,10.92,4.36-2.23,12.45-5.62,23.01-5.7,16.03-.15,27.37,7.36,31.32,10.26-.8,9.69-2.73,18.38-4.91,25.52l-.55,1.8.81,1.72c5.05,10.76,12.79,32.78,7.74,59.5Z"/>
      </g>
      <path class="cls-1" d="M375.51,416.03c-19.28,6.24-40.5,6.35-59.58-.42-9.8-3.4-18.8-8.79-26.41-15.8-7.26-6.7-13.02-14.87-17.13-23.81.7-.02,1.43.03,2.15.15,3.41.55,8.66,2.91,9.18,3.15,2.5,1.12,3.69,1.9,4.29,1.41,1.09-.91-.54-5.56-3.14-8.66-3.87-4.65-11.31-7.56-18.46-5.69-8.42,2.18-13.62,10.22-13.81,16.45,0,.55-.08,3.85,1.2,4.29,1.43.49,2.86-3.19,6.81-6.35.18-.15.49-.39.89-.68-7.46,27.74,5.04,56.45,31.79,68.77,17.96,8.35,40.57,10.4,58.92,2.24,4.29-2.06,8.48-5.12,10.56-9.61,1.58-3.19,1.37-7.13,1.93-10.37,1.06-6.45,5.72-11.44,11.28-14.72.89-.44,1.77-.91,2.65-1.41-1.06.29-2.1.65-3.12,1.07ZM361.63,430.36c-.99,3.25-.93,6.37-2.6,9.17-1.97,3.23-5.49,5.18-8.99,6.58-25.7,8.57-62.3-1.9-75.14-26.9-4.75-8.73-6.4-18.95-5.38-28.91.78,1.15,1.59,2.29,2.44,3.41,21.7,29.94,64.33,39.14,97.81,25.5-3.82,2.76-6.84,6.57-8.14,11.15Z"/>
    </g>
  </g>
</svg>