<?xml version="1.0" encoding="UTF-8"?>
<svg id="Camada_1" data-name="Camada 1" xmlns="http://www.w3.org/2000/svg" viewBox="0 0 600 600">
  <defs>
    <style>
      .cls-1 {
        fill: #da1923;
      }
    </style>
  </defs>
  <path class="cls-1" d="M489.12,199.09c-2.31,3.59-4.94,7-7.81,10.19-.36.35-.72.7-1.1,1.08-1.34,1.36-2.67,2.8-4.06,4.01-3.02,2.64-6.43,5.44-9.75,7.65-6.46,4.21-13.52,7.64-20.87,10.06,1.7,2.14,3.19,4.5,4.44,7.06,5.26,10.74,7.25,27.03-.39,39.59-.9,1.45-3.12,4.85-8.93,8.77,10.8,30.16,6.97,58.56,1.41,77.87,5.84,13.02,13.74,37.67,8.13,67.28-.7,3.74-3.14,14.7-9.31,27.7-4.66,9.8-11.43,20.73-21.2,30.59-4.85,4.92-10.47,9.58-16.93,13.69-15.87,10.09-34.31,15.2-54.29,15.2-8.58,0-17.44-.93-26.51-2.83-2.21-.46-4.42-.99-6.63-1.57-17.23-4.47-34.28-12.25-49.11-22.35-5.19-3.51-10.11-7.29-14.67-11.34-23.11-20.43-34.94-45.18-40.94-63.73-7.69,1.03-21.15,1.16-32.97-7.45-9.63-7.05-16.72-18.82-18.51-30.78-1.45-9.75.62-18.75,6.04-25.97,3.98-5.27,9.61-9.39,16.25-11.82,6.37-2.35,13.45-3.05,20.43-2.13-1.58-3.44-2.88-6.29-4.28-10.41-2.22-6.43-3.74-13.09-4.53-19.83-.06-.36-.09-.7-.12-1.05-.04.43.05.8.12,1.05-19.88.07-40.1-5.3-56.95-15.94-4.47-2.79-8.68-5.98-12.61-9.53-3.26-2.95-6.31-6.15-9.1-9.6-27.93-34.51-19.19-75.91,9.44-106.79,15.46-17.42,38.13-27.42,61.06-29.61,11.89-1.19,23.85-.45,35.52,1.95,6.39,1.3,12.69,3.09,18.82,5.34,10.25,3.73,20.03,8.7,29.05,14.68,9.7-11.28,19.74-22.24,30.2-32.87,3.07-3.12,6.15-6.19,9.29-9.23,2.15-2.02,4.39-3.99,6.66-5.89,6.11-5.12,12.63-9.8,19.57-13.78.55-.31,1.08-.61,1.63-.91,1.99-1.06,3.99-2.09,6.05-3.05,4.62-2.21,9.44-4.15,14.39-5.84,3.4-1.16,6.85-2.2,10.37-3.12,7.99-2.09,16.21-3.57,24.51-4.39,3.47-.36,6.92-.61,10.39-.72,7.21-.28,14.41-.03,21.49.68,3.67.36,7.3.86,10.88,1.49.71.13,1.39.26,2.07.39,3.48.67,6.89,1.48,10.25,2.4.16.06.33.09.48.14,28.11,7.88,51.33,26.9,55.39,57.08,2.88,19.59-1.96,40.03-12.73,56.6Z"/>
</svg>