<?xml version="1.0" encoding="UTF-8"?>
<svg id="Camada_1" data-name="Camada 1" xmlns="http://www.w3.org/2000/svg" viewBox="0 0 778 361.71">
  <defs>
    <style>
      .cls-1 {
        fill: #f7efeb;
      }
    </style>
  </defs>
  <path class="cls-1" d="M87.78,334.71c-16.4-.6-32.34-4.19-47.83-10.76-3.76-1.53-7.17-3.19-10.23-4.97-3.06-1.79-5.49-4.02-7.3-6.69-1.81-2.66-2.64-6.02-2.49-10.06.12-3.24,1.17-5.98,3.16-8.22,1.99-2.24,4.49-3.31,7.49-3.2,1.73.06,3.14.35,4.22.85,1.08.5,2.3,1.18,3.65,2.04l1.19.74,4.55-10.76c5.05-11.72,11.83-27.96,20.33-48.7,4.08-10.37,8.16-20.75,12.23-31.12,9.18-23.48,18.16-48.01,26.96-73.6,1.03-2.97,2.28-5.52,3.74-7.67-3.09,2.32-5.91,4.21-8.44,5.68-2.54,1.47-5.14,2.15-7.79,2.06-2.42-.09-4.81-1.22-7.16-3.38-2.9-3-4.24-7.38-4.03-13.16.1-2.77.63-5.41,1.59-7.92.96-2.51,2.33-4.43,4.11-5.75,30.65-22.35,61.74-32.96,93.26-31.81,11.32.41,21.44,2.51,30.39,6.31,8.94,3.79,15.91,9.11,20.92,15.94,5.01,6.84,7.34,15.16,6.98,24.97-.22,6-1.67,12.66-4.37,19.96-5.97,14.7-16.45,27.85-31.44,39.44-14.99,11.59-31.66,21.57-50,29.92,16.02,4.52,28,11.54,35.92,21.08,7.92,9.54,11.77,20.49,11.55,32.85-.43,11.89-3.86,22.64-10.28,32.23-6.42,9.6-14.87,17.73-25.35,24.4-10.48,6.67-22.25,11.68-35.32,15.02-13.07,3.34-26.48,4.76-40.22,4.26ZM86.31,308.29c14.55.53,27.99-1.64,40.3-6.51,12.32-4.87,22.24-11.27,29.75-19.21,7.51-7.93,11.62-16.52,12.3-25.74.26-7.28-1.63-13.21-5.68-17.81-4.06-4.6-9.54-8.01-16.45-10.23-6.92-2.22-14.53-3.48-22.84-3.78-7.62-.28-15.44.2-23.46,1.4l-14.52,31.9c-11.04,23.77-17.95,38.96-20.74,45.56l-.73,1.01c7.44,2.01,14.8,3.14,22.08,3.41ZM117,189.38c40.15-16.57,66.98-37.4,80.5-62.46,1.62-3.29,2.49-6.33,2.59-9.1.2-5.43-2.25-9.56-7.35-12.41-5.1-2.84-11.58-4.41-19.43-4.69-9.47-.34-19.93,1.18-31.39,4.58-8.2,2.82-15.6,6.08-22.21,9.77,2.77.1,5.37.9,7.8,2.41,3.56,2.21,5.55,4.82,6.78,6.62,3.43,5.02,4.31,10.15,4.55,13.17-7.28,17.37-14.56,34.74-21.85,52.11Z"/>
  <path class="cls-1" d="M754.64,163.78c-.9-3.36-3.1-9.82-8.36-15.47-1.01-1.1-2.14-2.18-3.41-3.18-3.65-2.91-7.07-4.25-7.94-4.59-4.37-1.71-9.15-2.28-14.32-1.71-12.16,1.38-24.4,8.92-36.69,22.63-2.43,3.3-3.42,6.84-3,10.62.24,2.18.89,4.32,1.95,6.41-9.63,11.55-16.61,24.38-20.88,38.46-4.28,14.08-5.76,27.15-4.39,39.22,1.4,12.4,5.07,21.64,11.06,27.72,5.97,6.06,14.7,8.91,26.17,8.55,9.64-1.07,18.52-5.57,26.65-13.45,8.13-7.9,15.12-17.66,20.94-29.32,5.85-11.64,10.14-23.92,12.87-36.86,2.73-12.92,3.47-24.95,2.21-36.09-.52-4.7-1.47-9.02-2.85-12.94ZM730.32,214.92c-2.96,11.44-7.03,21.53-12.22,30.25-5.18,8.73-10.76,13.42-16.71,14.1-2.2.24-4.1-.18-5.74-1.28-2.04-1.52-3.3-4.58-3.82-9.16-.78-7.94.11-16.82,2.67-26.64,2.56-9.82,6.94-18.62,13.16-26.42,2.53-3.31,3.58-6.92,3.15-10.83l-.53-3.07c6.91-1.71,13.22-3.89,18.98-6.5l1.34-.5c1.35,2.74,2.24,6.02,2.66,9.82.99,8.72,0,18.8-2.95,30.23Z"/>
  <path class="cls-1" d="M302.73,163.78c-.9-3.36-3.1-9.82-8.36-15.47-1.01-1.1-2.14-2.18-3.41-3.18-3.65-2.91-7.07-4.25-7.94-4.59-4.37-1.71-9.15-2.28-14.32-1.71-12.16,1.38-24.4,8.92-36.69,22.63-2.43,3.3-3.42,6.84-3,10.62.24,2.18.89,4.32,1.95,6.41-9.63,11.55-16.61,24.38-20.88,38.46-4.28,14.08-5.76,27.15-4.39,39.22,1.4,12.4,5.07,21.64,11.06,27.72,5.97,6.06,14.7,8.91,26.17,8.55,9.64-1.07,18.52-5.57,26.65-13.45,8.13-7.9,15.12-17.66,20.94-29.32,5.85-11.64,10.14-23.92,12.87-36.86,2.73-12.92,3.47-24.95,2.21-36.09-.52-4.7-1.47-9.02-2.85-12.94ZM278.41,214.92c-2.96,11.44-7.03,21.53-12.22,30.25-5.18,8.73-10.76,13.42-16.71,14.1-2.2.24-4.1-.18-5.74-1.28-2.04-1.52-3.3-4.58-3.82-9.16-.78-7.94.11-16.82,2.67-26.64,2.56-9.82,6.94-18.62,13.16-26.42,2.53-3.31,3.58-6.92,3.15-10.83l-.53-3.07c6.91-1.71,13.22-3.89,18.98-6.5l1.34-.5c1.35,2.74,2.24,6.02,2.66,9.82.99,8.72,0,18.8-2.95,30.23Z"/>
  <path class="cls-1" d="M442.95,151.02c.09,4.39-.43,8.36-1.57,11.91-1.13,3.56-2.76,7.83-4.84,12.84-4.97,11.55-10.19,24.43-15.68,38.65-9.53,25.04-14.16,43.46-13.92,55.24.06,3.23.59,5.99,1.55,8.3.74,1.7,1.12,3.44,1.15,5.16.06,2.44-.78,4.58-2.46,6.47-1.7,1.89-3.93,2.86-6.71,2.91-6.69.15-11.91-3.27-15.64-10.23-2.78-5.73-4.25-12.63-4.42-20.73-.21-9.93.96-20.65,3.5-32.15,2.53-11.5,5.37-22.18,8.51-32.07,3.14-9.89,5.75-17.64,7.83-23.22l1.8-5.41c-2.52,1.55-11.35,10.23-26.49,26.04-15.17,15.79-32.73,37.73-52.72,65.77-5.05,7.38-9.1,12.82-12.14,16.28-3.04,3.48-6.24,5.26-9.59,5.31-5.45.11-8.23-3.69-8.4-11.44-.13-6.35,1.15-14.2,3.84-23.56,2.7-9.36,5.62-18.66,8.77-27.93,3.16-9.25,7-19.61,11.5-31.09,4.5-11.48,8.66-21.71,12.54-30.69-7.15,2.72-14.37,5.56-21.67,8.47-.87-4.5-2.8-10.65-7.02-16.41,15.24-6.11,26.91-10.59,32.75-12.44,3.56-1.12,6.96-1.7,10.19-1.76,4.52-.09,8.47,1.23,11.88,3.99,3.4,2.76,5.18,6.86,5.29,12.29.06,3.23-.62,6.94-2.02,11.14l-4.58,13.45-2.91,9.59-.32,1.57,1.02-.89c14.2-17.62,26.25-30.9,36.18-39.84,9.93-8.94,19.33-14.49,28.18-16.64,1.49-.38,2.99-.57,4.5-.61,7.62-.15,13.69,2.78,18.21,8.81,2.5,3.54,3.8,7.83,3.91,12.92Z"/>
  <path class="cls-1" d="M524.24,288.4c-7.22-.32-11.91-2-14.09-5.07-2.17-3.06-3.46-7.01-3.87-11.85-.68-8.06-.73-14.79-.14-20.17l.19-3.84c-10.52,14-20.31,23.76-29.35,29.28-5.89,3.05-11.24,4.78-16.08,5.19-6.68.57-12.5-1.03-17.46-4.78-4.96-3.76-8.87-8.88-11.74-15.36-2.87-6.48-4.63-13.53-5.27-21.13-.63-7.48-.16-14.94,1.41-22.38,3.07-14.4,8.29-27.69,15.67-39.86,7.37-12.16,16.16-22.16,26.33-29.98,10.18-7.82,20.85-12.2,32.02-13.15,12.2-1.03,23.44,2.3,33.72,10.01,3.32-7.36,8.2-11.31,14.66-11.86,2.07-.18,4.61.02,7.61.57,3.01.56,5.2,1.54,6.59,2.92,1.4,1.39,2.17,3.06,2.34,5.02.24,2.88-.42,6.01-1.99,9.38-7.95,22.48-14.49,42.81-19.62,60.99-5.12,18.17-9.31,38.94-12.54,62.3-.09.36-.11.76-.07,1.22-.31,3.16-.91,5.96-1.81,8.41-.9,2.45-3.07,3.83-6.52,4.12ZM465.59,245.01c6.2-2.15,12.82-7.43,19.88-15.86,7.05-8.43,13.89-18.03,20.52-28.8,6.62-10.76,12.37-20.88,17.25-30.34-.48-.19-.85-.5-1.12-.94-4.12-3.48-8.55-5.02-13.26-4.62-7.26.62-14.47,4.76-21.65,12.45-7.18,7.68-13.02,16.99-17.55,27.93-4.52,10.94-6.35,21.59-5.47,31.95.23,2.76.7,5.51,1.4,8.23Z"/>
  <path class="cls-1" d="M620.25,315.34l-2.95-.17c-5.89-1.27-10.22-3.85-13-7.71-2.77-3.88-4.22-7.89-4.33-12.05,0-42.29,16.87-102.38,50.61-180.27l-17.34-.18c-8.9,21.49-17.51,43.68-25.82,66.56-14.56,39.52-25.77,78.7-33.63,117.52l-.69,5.2c0,7.4-2.31,11.1-6.93,11.1-7.4-.81-12.66-3.47-15.78-7.98-2.89-3.81-4.39-7.8-4.51-11.95,0-23.11,4.39-49.58,13.17-79.39,10.98-36.39,23.46-69.62,37.44-99.66-19.99,1.5-40.73,4.5-62.23,9.01-3.58.93-6.76,1.38-9.53,1.38-2.89,0-5.03-1.96-6.42-5.89-.69-2.19-1.03-4.22-1.03-6.06,0-7.51,3.98-12.02,11.95-13.52,23.34-4.16,49.41-7.1,78.18-8.84,15.37-32.36,24.61-49.4,27.73-51.13,1.5-.93,3.12-1.39,4.86-1.39,5.2,0,9.58,2.49,13.17,7.45,1.74,2.54,2.6,5.84,2.6,9.88,0,3.24-.98,7.22-2.94,11.95l-9.71,22.19c6.24,0,12.36.06,18.37.18,10.63-23.34,20.74-43.34,30.33-59.97,1.5-3.13,4.16-4.69,7.98-4.69,4.85,0,9.18,2.49,13,7.46,1.85,2.42,2.77,5.49,2.77,9.18,0,3.47-1.1,7.69-3.29,12.66-5.32,12.13-10.7,24.67-16.12,37.61,8.66.93,17.16,2.02,25.48,3.29,9.13,1.74,14.96,4.16,17.51,7.28,1.38,1.85,2.08,3.93,2.08,6.24,0,1.73-.4,3.58-1.21,5.54-1.51,4.97-4.85,7.45-10.05,7.45-4.28,0-10.98-.98-20.11-2.94-6.24-1.39-14.04-2.49-23.4-3.3-6.36,15.84-12.76,32.24-19.24,49.23-17.8,46.57-30.91,90.71-39.35,132.43l-.69,5.2c0,7.4-2.32,11.1-6.93,11.1Z"/>
</svg>